<svg width="20" height="20" viewBox="0 0 20 20" fill="none" xmlns="http://www.w3.org/2000/svg">
<path d="M12.1687 16.5812L5.91872 10.3312C5.83094 10.2434 5.78164 10.1242 5.78164 9.99999C5.78164 9.87578 5.83094 9.75664 5.91872 9.66874L12.1687 3.41875C12.2576 3.33595 12.3751 3.29087 12.4965 3.29301C12.618 3.29515 12.7339 3.34435 12.8197 3.43023C12.9056 3.51611 12.9548 3.63198 12.957 3.75342C12.9591 3.87486 12.914 3.99239 12.8312 4.08125L6.91325 9.99999L12.8312 15.9187C12.914 16.0076 12.9591 16.1251 12.957 16.2466C12.9548 16.368 12.9056 16.4839 12.8197 16.5698C12.7339 16.6556 12.618 16.7048 12.4965 16.707C12.3751 16.7091 12.2576 16.664 12.1687 16.5812Z" fill="black"/>
</svg>
