<svg width="24" height="24" viewBox="0 0 24 24" fill="none" xmlns="http://www.w3.org/2000/svg">
<path d="M20.6475 12.3974L13.8975 19.1474C13.7909 19.2467 13.6498 19.3008 13.5041 19.2983C13.3584 19.2957 13.2193 19.2367 13.1163 19.1336C13.0132 19.0305 12.9542 18.8915 12.9516 18.7458C12.949 18.6001 13.0031 18.459 13.1025 18.3524L18.8916 12.5624H3.75C3.60082 12.5624 3.45774 12.5031 3.35225 12.3976C3.24676 12.2921 3.1875 12.1491 3.1875 11.9999C3.1875 11.8507 3.24676 11.7076 3.35225 11.6021C3.45774 11.4966 3.60082 11.4374 3.75 11.4374H18.8916L13.1025 5.64739C13.0031 5.54075 12.949 5.39972 12.9516 5.25399C12.9542 5.10827 13.0132 4.96923 13.1163 4.86617C13.2193 4.76311 13.3584 4.70407 13.5041 4.7015C13.6498 4.69893 13.7909 4.75302 13.8975 4.85238L20.6475 11.6024C20.7528 11.7079 20.812 11.8508 20.812 11.9999C20.812 12.1489 20.7528 12.2919 20.6475 12.3974Z" fill="black"/>
</svg>
