<svg width="20" height="20" viewBox="0 0 20 20" fill="none" xmlns="http://www.w3.org/2000/svg">
<path d="M16.5813 7.83125L10.3313 14.0812C10.2434 14.169 10.1242 14.2183 10 14.2183C9.87581 14.2183 9.75667 14.169 9.66878 14.0812L3.41878 7.83125C3.33598 7.74239 3.2909 7.62486 3.29304 7.50342C3.29518 7.38198 3.34438 7.26612 3.43026 7.18023C3.51615 7.09435 3.63201 7.04515 3.75345 7.04301C3.87489 7.04087 3.99242 7.08595 4.08128 7.16875L10 13.0867L15.9188 7.16875C16.0076 7.08595 16.1252 7.04087 16.2466 7.04301C16.368 7.04515 16.4839 7.09435 16.5698 7.18023C16.6557 7.26612 16.7049 7.38198 16.707 7.50342C16.7092 7.62486 16.6641 7.74239 16.5813 7.83125Z" fill="black"/>
</svg>
