<svg id="Urn_Logo_White" xmlns="http://www.w3.org/2000/svg" xmlns:xlink="http://www.w3.org/1999/xlink" width="38.727" height="51.796" viewBox="0 0 38.727 51.796">
  <defs>
    <clipPath id="clip-path">
      <rect id="Rectangle_6" data-name="Rectangle 6" width="38.727" height="51.796" fill="#fff"/>
    </clipPath>
  </defs>
  <g id="Group_8" data-name="Group 8" clip-path="url(#clip-path)">
    <path id="Path_1053" data-name="Path 1053" d="M17.5,19.318h-5.07c-.065-.157-.006-.227.142-.266a2.933,2.933,0,0,0,.472-.157,1.362,1.362,0,0,0,.825-1.2c.019-.2.035-.4.035-.6,0-2.1,0-4.2-.011-6.306a2.581,2.581,0,0,0-.141-.883,1.506,1.506,0,0,0-1.169-.865c-.09-.024-.2-.038-.168-.153.016-.053.132-.108.2-.108q4.077-.008,8.154,0c.1,0,.2-.009.217.146.08.841.171,1.683.249,2.524.006.062-.034.171-.079.187-.1.039-.147-.045-.18-.142a4.291,4.291,0,0,0-.789-1.459,2.741,2.741,0,0,0-1.839-.927,3.962,3.962,0,0,0-1.933.151,1.037,1.037,0,0,0-.633.789,3.51,3.51,0,0,0-.083.723c-.01.8,0,1.59-.006,2.384,0,.168.035.245.221.232.453-.03.911-.021,1.36-.073a1.663,1.663,0,0,0,1.575-1.438c.028-.1.046-.211.17-.171.053.018.1.133.1.2.006,1.225.005,2.449,0,3.672,0,.092.024.225-.114.216-.057,0-.127-.118-.152-.195-.1-.3-.158-.609-.275-.9a1.6,1.6,0,0,0-1.477-.991c-.414-.033-.833-.018-1.25-.03-.128,0-.165.05-.163.171.005,1.154,0,2.308.011,3.461a2.477,2.477,0,0,0,.105.7,1.466,1.466,0,0,0,1.04.912,3.127,3.127,0,0,0,.5.131c.163.028.2.105.146.259m-1.859-.4.019-.038c-.08-.062-.156-.128-.241-.182a.8.8,0,0,1-.394-.756c.014-.511,0-1.025,0-1.537,0-1.979.013-3.959-.008-5.938a1.153,1.153,0,0,1,.622-1.22c.055-.026.093-.088.176-.171H13.464l-.078.088a.83.83,0,0,1,.18.068c.138.094.269.2.4.3a.578.578,0,0,1,.227.484q0,4.028,0,8.053a.621.621,0,0,1-.259.529c-.123.094-.246.191-.417.322Zm4.894-8.979c-.043-.266-.082-.533-.133-.8a.144.144,0,0,0-.112-.083c-.278-.008-.554,0-.841,0l1.086.883m-2.728,3.6.721.455v-.873l-.721.418" transform="translate(3.174 2.246)" fill="#fff"/>
    <path id="Path_1054" data-name="Path 1054" d="M25.167,39.523H9.007a.113.113,0,0,1-.03-.222,5.38,5.38,0,0,0,3.638-4.516.113.113,0,0,1,.113-.105h8.717a.113.113,0,0,1,.113.105A5.381,5.381,0,0,0,25.2,39.3a.113.113,0,0,1-.031.222M9.639,39.3h14.9a5.7,5.7,0,0,1-3.194-4.392H12.833A5.7,5.7,0,0,1,9.639,39.3" transform="translate(2.276 8.875)" fill="#fff"/>
    <path id="Path_1055" data-name="Path 1055" d="M29.582,25.965H7.649a.113.113,0,0,1,0-.226.644.644,0,0,0,.453-.2.623.623,0,0,0,.183-.447A105.765,105.765,0,0,0,6.96,9.133,5.676,5.676,0,0,0,3.007,4.605a.113.113,0,0,1,.028-.222H34.2a.111.111,0,0,1,.112.1.113.113,0,0,1-.084.123,5.672,5.672,0,0,0-3.951,4.519,105.549,105.549,0,0,0-1.325,15.969.635.635,0,0,0,.185.453.642.642,0,0,0,.451.192.113.113,0,0,1,0,.226M8.225,25.739H29.006c-.011-.011-.024-.023-.034-.034a.856.856,0,0,1-.251-.612,106.087,106.087,0,0,1,1.326-16,5.978,5.978,0,0,1,3.464-4.482H3.719A5.984,5.984,0,0,1,7.185,9.1a106.306,106.306,0,0,1,1.326,16,.851.851,0,0,1-.247.605l-.039.038" transform="translate(0.748 1.122)" fill="#fff"/>
    <path id="Path_1056" data-name="Path 1056" d="M15.97,22.719a.115.115,0,0,1-.1-.062,1.74,1.74,0,0,0-.982-.913,1.847,1.847,0,0,0-1.162-.008l-.019.006a1.633,1.633,0,0,0-.926.814.113.113,0,0,1-.144.051.144.144,0,0,1-.065-.057,1.491,1.491,0,0,0-1.634-.868l-.019,0a1.731,1.731,0,0,0-1.027.642.114.114,0,0,1-.153.028.185.185,0,0,1-.04-.043c-.2-.358-.575-.741-1-.654l-.021,0a2.081,2.081,0,0,0-.834.327c-.025.018-.051.036-.077.057a.114.114,0,0,1-.093.02.111.111,0,0,1-.077-.059c-.126-.246-.251-.367-.362-.354l-.023,0h0a2.288,2.288,0,0,0-.442.113.126.126,0,0,1-.093-.008.114.114,0,0,1-.055-.074l-.009-.048a.283.283,0,0,0-.014-.06.133.133,0,0,1-.006-.039V21.5a.113.113,0,0,1,.113-.113H28.641a.113.113,0,0,1,.113.113v.039a.413.413,0,0,1-.019.109l-.009.033a.1.1,0,0,1-.054.075.123.123,0,0,1-.094.009,2.3,2.3,0,0,0-.442-.111H28.1c-.151,0-.284.219-.353.353a.149.149,0,0,1-.02.029.117.117,0,0,1-.154.014,1.993,1.993,0,0,0-.9-.387h-.016c-.56-.09-.908.48-1,.653a.187.187,0,0,1-.019.025.11.11,0,0,1-.082.034.106.106,0,0,1-.09-.045,1.753,1.753,0,0,0-1.054-.646,1.494,1.494,0,0,0-1.629.87.1.1,0,0,1-.05.049.122.122,0,0,1-.158-.044,1.63,1.63,0,0,0-.926-.814l-.015,0a1.906,1.906,0,0,0-1.189.014,1.751,1.751,0,0,0-.96.9.114.114,0,0,1-.1.062h0a.115.115,0,0,1-.1-.067,1.905,1.905,0,0,0-.2-.352l-.009-.01a1.792,1.792,0,0,0-1.405-.646h-.008a1.67,1.67,0,0,0-1.328.6,1.8,1.8,0,0,0-.25.407.112.112,0,0,1-.1.067Zm-.81-1.106a1.973,1.973,0,0,1,.805.755,1.8,1.8,0,0,1,.182-.262,1.757,1.757,0,0,1,.623-.492Zm4.072.527.011.013a1.72,1.72,0,0,1,.142.215,1.93,1.93,0,0,1,.8-.755H18.547a1.872,1.872,0,0,1,.684.527m-7.253-.527a1.982,1.982,0,0,1,.7.672,1.865,1.865,0,0,1,.751-.672Zm9.946,0a1.834,1.834,0,0,1,.747.671,1.993,1.993,0,0,1,.7-.671Zm-12.534,0a1.744,1.744,0,0,1,.425.455,1.955,1.955,0,0,1,.62-.455Zm15.525,0a1.9,1.9,0,0,1,.623.452,1.59,1.59,0,0,1,.432-.452Zm2.371,0a1.978,1.978,0,0,1,.323.182,1.156,1.156,0,0,1,.131-.182Zm-19.674,0a1.242,1.242,0,0,1,.127.177,2.144,2.144,0,0,1,.32-.177Z" transform="translate(1.688 5.473)" fill="#fff"/>
    <path id="Path_1057" data-name="Path 1057" d="M17.563,30.98a.708.708,0,0,1-.569-.328.108.108,0,0,1-.018-.085.116.116,0,0,1,.05-.074,4.246,4.246,0,0,0,1.117-1.115,12.636,12.636,0,0,0,1.7-3.657l.069-.224a5.122,5.122,0,0,0,.222-.845,4.956,4.956,0,0,0,0-1.462,2.313,2.313,0,0,0-.219-.639.116.116,0,0,1-.008-.087.105.105,0,0,1,.028-.044,1.7,1.7,0,0,1,1.868-.966,1.972,1.972,0,0,1,1.184.732,1.783,1.783,0,0,1,.2.348,3.824,3.824,0,0,1,.088,2.256,4.785,4.785,0,0,1-.31.847l-.08.183c-.165.389-.348.769-.541,1.127a10.854,10.854,0,0,1-1.193,1.775,6.65,6.65,0,0,1-2.871,2.1,3.759,3.759,0,0,1-.633.148.48.48,0,0,1-.085.008m-.308-.367a.426.426,0,0,0,.36.136,3.649,3.649,0,0,0,.6-.141,6.413,6.413,0,0,0,2.764-2.032,10.625,10.625,0,0,0,1.169-1.738c.19-.352.368-.725.531-1.108l.082-.185a4.755,4.755,0,0,0,.3-.8,3.616,3.616,0,0,0-.073-2.116,1.711,1.711,0,0,0-.178-.305,1.753,1.753,0,0,0-1.054-.646,1.475,1.475,0,0,0-1.606.829,2.609,2.609,0,0,1,.21.643,5.134,5.134,0,0,1,0,1.532,5.51,5.51,0,0,1-.231.887l-.069.22a12.832,12.832,0,0,1-1.729,3.724,4.693,4.693,0,0,1-1.07,1.1" transform="translate(4.344 5.479)" fill="#fff"/>
    <path id="Path_1058" data-name="Path 1058" d="M25.167,39.159H9.007a.113.113,0,0,1-.113-.113v-.576a.113.113,0,0,1,.113-.113h16.16a.113.113,0,0,1,.113.113v.576a.113.113,0,0,1-.113.113M9.12,38.932H25.055v-.35H9.12Z" transform="translate(2.276 9.816)" fill="#fff"/>
    <path id="Path_1059" data-name="Path 1059" d="M20.651,29.494H11.994a.113.113,0,0,1-.113-.113v-.323a.39.39,0,0,1,.005-.04.121.121,0,0,1,.124-.1l.069.009.119.013a.193.193,0,0,0,.029-.031.105.105,0,0,1,.111-.041c.154.03.313.055.47.073.058.016.151-.048.2-.107a.106.106,0,0,1,.121-.036,3.732,3.732,0,0,0,.6.141.464.464,0,0,0,.433-.219.113.113,0,0,1,.153-.033,2,2,0,0,0,.535.236.575.575,0,0,0,.682-.374.112.112,0,0,1,.1-.073.131.131,0,0,1,.107.057,1.532,1.532,0,0,0,.114.173l.01.01a.566.566,0,0,0,.446.222h.013a.611.611,0,0,0,.472-.22,1.322,1.322,0,0,0,.127-.187.114.114,0,0,1,.2.019.574.574,0,0,0,.679.373,2.026,2.026,0,0,0,.533-.241.112.112,0,0,1,.153.031.473.473,0,0,0,.436.225,3.561,3.561,0,0,0,.6-.141.118.118,0,0,1,.121.033c.054.062.134.128.2.112.158-.016.313-.038.48-.072a.119.119,0,0,1,.112.045.285.285,0,0,0,.028.03c.051-.01.119-.018.186-.025a.128.128,0,0,1,.088.029.114.114,0,0,1,.038.084v.344a.113.113,0,0,1-.112.113m-8.544-.113h0Zm0-.113h8.431v-.105l-.083.009a.188.188,0,0,1-.165-.063c-.151.026-.29.048-.427.062a.421.421,0,0,1-.347-.133,3.709,3.709,0,0,1-.565.128.655.655,0,0,1-.589-.236,2.192,2.192,0,0,1-.5.215A.8.8,0,0,1,17,28.814a.476.476,0,0,1-.038.05.846.846,0,0,1-.648.3H16.3a.791.791,0,0,1-.61-.3l-.01-.009-.034-.044a.793.793,0,0,1-.854.33,2.233,2.233,0,0,1-.509-.212.678.678,0,0,1-.592.232,4.082,4.082,0,0,1-.56-.128.408.408,0,0,1-.348.132c-.134-.015-.278-.038-.422-.064a.2.2,0,0,1-.182.064l-.07-.006Zm.1-.323h0Z" transform="translate(3.041 7.288)" fill="#fff"/>
    <path id="Path_1060" data-name="Path 1060" d="M18.277,30.981a.488.488,0,0,1-.352-.191.115.115,0,0,1-.023-.1.112.112,0,0,1,.074-.078,6.406,6.406,0,0,0,2.764-2.032,10.654,10.654,0,0,0,1.169-1.738c.188-.352.369-.725.533-1.108l.08-.186a4.711,4.711,0,0,0,.3-.8,3.631,3.631,0,0,0-.074-2.118,1.652,1.652,0,0,0-.177-.3.109.109,0,0,1,0-.131,1.244,1.244,0,0,1,1.213-.762H23.8a2.2,2.2,0,0,1,1.022.436,1.786,1.786,0,0,1,.583.8,3.867,3.867,0,0,1-.074,2.276l-.013.034L25.305,25a10.8,10.8,0,0,1-2.851,4.037A8.016,8.016,0,0,1,18.813,30.9c-.171.033-.329.058-.484.073a.258.258,0,0,1-.053.005m-.025-.23a.073.073,0,0,0,.04,0h.01c.148-.015.3-.036.47-.069A7.786,7.786,0,0,0,22.3,28.865a10.555,10.555,0,0,0,2.793-3.95l.123-.008-.109-.03a3.641,3.641,0,0,0,.079-2.141,1.541,1.541,0,0,0-.509-.7,1.981,1.981,0,0,0-.9-.386h-.014c-.511-.087-.838.377-.97.594a1.734,1.734,0,0,1,.158.286,3.814,3.814,0,0,1,.088,2.256,4.722,4.722,0,0,1-.31.847l-.079.182c-.166.391-.348.77-.544,1.128a10.77,10.77,0,0,1-1.192,1.775,6.842,6.842,0,0,1-2.664,2.031" transform="translate(4.581 5.481)" fill="#fff"/>
    <path id="Path_1061" data-name="Path 1061" d="M12.078,35.141h-.005a.655.655,0,0,1-.639-.672.666.666,0,0,1,.623-.707h8.751a.654.654,0,0,1,.632.684.665.665,0,0,1-.638.695Zm0-.226H20.8a.442.442,0,0,0,.418-.47.429.429,0,0,0-.412-.457H12.066a.439.439,0,0,0-.4.477.43.43,0,0,0,.419.45" transform="translate(2.926 8.641)" fill="#fff"/>
    <path id="Path_1062" data-name="Path 1062" d="M38.369,5.468H.276a.113.113,0,0,1-.113-.113V4.488A3.671,3.671,0,0,1,2.548,1.033a.121.121,0,0,1,.036-.005H36.061a.13.13,0,0,1,.038.005,3.674,3.674,0,0,1,2.384,3.46v.862a.113.113,0,0,1-.113.113M.39,5.355h0Zm0-.113H38.256V4.488a3.491,3.491,0,0,0-2.213-3.235H2.6A3.488,3.488,0,0,0,.39,4.483Z" transform="translate(0.041 0.263)" fill="#fff"/>
    <path id="Path_1063" data-name="Path 1063" d="M14.587,30.981a.484.484,0,0,1-.093-.009,3.986,3.986,0,0,1-.63-.148,6.583,6.583,0,0,1-2.822-2.047,10.877,10.877,0,0,1-1.31-1.958c-.178-.343-.348-.7-.5-1.065l-.08-.186a4.345,4.345,0,0,1-.281-.775,3.84,3.84,0,0,1,.092-2.266,1.8,1.8,0,0,1,.2-.342,1.983,1.983,0,0,1,1.177-.731l.013,0a1.72,1.72,0,0,1,1.864.973.083.083,0,0,1,.018.033.111.111,0,0,1,0,.092,2.344,2.344,0,0,0-.219.638,4.749,4.749,0,0,0,0,1.467,5.167,5.167,0,0,0,.22.841l.07.221,0,.018a13.163,13.163,0,0,0,1.469,3.321A4.763,4.763,0,0,0,15.116,30.5a.112.112,0,0,1,.05.072.115.115,0,0,1-.015.087.719.719,0,0,1-.564.325m-4.217-9.3a1.72,1.72,0,0,0-1.026.643,1.425,1.425,0,0,0-.177.3,3.652,3.652,0,0,0-.078,2.126,4.229,4.229,0,0,0,.269.731l.082.19c.151.359.316.711.494,1.047a10.526,10.526,0,0,0,1.281,1.917,6.341,6.341,0,0,0,2.719,1.978,3.849,3.849,0,0,0,.6.142h0a.415.415,0,0,0,.355-.132,5.188,5.188,0,0,1-1.3-1.439,13.4,13.4,0,0,1-1.5-3.394l0-.018-.065-.2a5.449,5.449,0,0,1-.229-.882,4.985,4.985,0,0,1,0-1.54A2.581,2.581,0,0,1,12,22.5a1.481,1.481,0,0,0-1.613-.828l-.02,0" transform="translate(2.237 5.48)" fill="#fff"/>
    <path id="Path_1064" data-name="Path 1064" d="M16.638,30.98a.826.826,0,0,1-.756-.544.127.127,0,0,1,.009-.1,4.3,4.3,0,0,0,.388-1.071l.046-.176a18.542,18.542,0,0,0,.419-2.2c.1-.69.2-1.472.241-2.234.013-.329.025-.72.016-1.118,0-.054,0-.114,0-.176a1.681,1.681,0,0,0-.089-.7.138.138,0,0,1-.009-.119,1.961,1.961,0,0,1,1.085-1.014,2.127,2.127,0,0,1,1.317-.023l.018,0a1.86,1.86,0,0,1,1.071.929,2.574,2.574,0,0,1,.24.7,5.134,5.134,0,0,1,0,1.532,5.7,5.7,0,0,1-.231.888l-.07.219a12.766,12.766,0,0,1-1.729,3.724,4.44,4.44,0,0,1-1.177,1.176,2.339,2.339,0,0,1-.589.268.733.733,0,0,1-.2.029m-.524-.573a.572.572,0,0,0,.661.327,2.013,2.013,0,0,0,.533-.242,4.246,4.246,0,0,0,1.117-1.115,12.6,12.6,0,0,0,1.694-3.657l.07-.224a5.249,5.249,0,0,0,.222-.845,4.956,4.956,0,0,0,0-1.462,2.327,2.327,0,0,0-.219-.639,1.63,1.63,0,0,0-.926-.814l-.015,0a1.9,1.9,0,0,0-1.189.015,1.711,1.711,0,0,0-.933.854,1.97,1.97,0,0,1,.1.767c0,.06,0,.117,0,.17.01.4,0,.8-.016,1.134-.038.772-.147,1.56-.244,2.256a19.024,19.024,0,0,1-.425,2.226l-.046.176a4.944,4.944,0,0,1-.383,1.079" transform="translate(4.063 5.481)" fill="#fff"/>
    <path id="Path_1065" data-name="Path 1065" d="M14.109,30.98a.231.231,0,0,1-.041,0c-.154-.018-.319-.043-.486-.077a8.144,8.144,0,0,1-3.87-2.067,10.3,10.3,0,0,1-1.495-1.751,11.4,11.4,0,0,1-.673-1.118l-.073-.137a5.114,5.114,0,0,1-.4-.887c-.4-1.471-.232-2.507.5-3.081l.087-.065a2.33,2.33,0,0,1,.943-.365h.011a1.253,1.253,0,0,1,1.22.762.088.088,0,0,1,.018.045.11.11,0,0,1-.019.088,1.477,1.477,0,0,0-.176.3,3.641,3.641,0,0,0-.077,2.126,4.267,4.267,0,0,0,.269.731l.08.188c.151.359.316.712.495,1.047A10.468,10.468,0,0,0,11.7,28.63a6.369,6.369,0,0,0,2.719,1.978.117.117,0,0,1,.074.075.105.105,0,0,1-.021.1.474.474,0,0,1-.359.193M8.614,21.654a2.075,2.075,0,0,0-.833.327c-.026.018-.051.036-.078.057-.651.512-.792,1.469-.421,2.84a4.912,4.912,0,0,0,.388.843l.073.138a11.946,11.946,0,0,0,.659,1.1,10.007,10.007,0,0,0,1.463,1.711,7.925,7.925,0,0,0,3.759,2.015c.153.029.311.054.468.072a.087.087,0,0,0,.044,0,6.791,6.791,0,0,1-2.614-1.973,10.954,10.954,0,0,1-1.31-1.959c-.178-.342-.348-.7-.5-1.064l-.079-.187a4.314,4.314,0,0,1-.283-.775,3.84,3.84,0,0,1,.092-2.266,1.729,1.729,0,0,1,.156-.276,1.011,1.011,0,0,0-.962-.6l-.023,0" transform="translate(1.755 5.48)" fill="#fff"/>
    <path id="Path_1066" data-name="Path 1066" d="M23.085,32.159h-12.7a.113.113,0,0,1-.113-.112,2.457,2.457,0,0,1,2.121-2.423h8.67A2.456,2.456,0,0,1,23.2,32.048a.113.113,0,0,1-.112.112M10.5,31.933H22.971a2.229,2.229,0,0,0-1.922-2.082H12.412A2.228,2.228,0,0,0,10.5,31.933" transform="translate(2.629 7.582)" fill="#fff"/>
    <path id="Path_1067" data-name="Path 1067" d="M15.175,30.977a.721.721,0,0,1-.192-.025,2.217,2.217,0,0,1-.6-.264h0a4.945,4.945,0,0,1-1.4-1.511,13.289,13.289,0,0,1-1.5-3.394l0-.018-.065-.2a5.551,5.551,0,0,1-.23-.882,5.016,5.016,0,0,1,0-1.539,2.624,2.624,0,0,1,.24-.7,1.86,1.86,0,0,1,1.069-.928l.013,0a2.053,2.053,0,0,1,1.3.011,1.978,1.978,0,0,1,1.113,1.024.116.116,0,0,1,0,.109l-.006.013a1.658,1.658,0,0,0-.088.7c0,.063,0,.122,0,.176-.006.325,0,.681.016,1.119.038.761.146,1.544.241,2.233a18.6,18.6,0,0,0,.417,2.187l.028.1a4.582,4.582,0,0,0,.408,1.155.112.112,0,0,1,.009.1.82.82,0,0,1-.759.538m-.669-.48a2.016,2.016,0,0,0,.535.236.574.574,0,0,0,.661-.327,5.066,5.066,0,0,1-.4-1.164l-.026-.1a18.886,18.886,0,0,1-.422-2.213c-.1-.695-.206-1.482-.244-2.254-.018-.445-.021-.8-.016-1.134q0-.079,0-.17a1.948,1.948,0,0,1,.1-.767,1.72,1.72,0,0,0-.957-.864,1.847,1.847,0,0,0-1.162-.008l-.02.005a1.641,1.641,0,0,0-.924.815,2.316,2.316,0,0,0-.22.638,4.788,4.788,0,0,0,0,1.467,5.207,5.207,0,0,0,.221.841l.07.22,0,.018a13.1,13.1,0,0,0,1.469,3.322A4.787,4.787,0,0,0,14.506,30.5" transform="translate(2.846 5.48)" fill="#fff"/>
    <path id="Path_1068" data-name="Path 1068" d="M35.59,1.475H2.114A.113.113,0,0,1,2,1.362V.273A.113.113,0,0,1,2.114.16H35.59A.113.113,0,0,1,35.7.273V1.362a.113.113,0,0,1-.113.113M2.226,1.249H35.477V.386H2.226Z" transform="translate(0.512 0.041)" fill="#fff"/>
    <path id="Path_1069" data-name="Path 1069" d="M26.557,41.661H8.088a.113.113,0,0,1-.113-.113V39.816c0-.352.285-1,.69-1l.588.1H25.4l.559-.1h0c.423,0,.707.649.707,1v1.732a.113.113,0,0,1-.113.113M8.2,41.435H26.444V39.816c0-.278-.234-.775-.463-.775l-.558.1H9.222l-.576-.1c-.21,0-.445.5-.445.776Z" transform="translate(2.041 9.934)" fill="#fff"/>
    <path id="Path_1070" data-name="Path 1070" d="M15.86,5.468a1.246,1.246,0,0,1-.608-.137,1.151,1.151,0,0,1-.144-.1,1.73,1.73,0,0,1-.445-.559l-.033-.055A4.733,4.733,0,0,1,14.2,3.6a5.691,5.691,0,0,1-.249-1.034,4.373,4.373,0,0,1-.016-.525.679.679,0,0,0,0-.072.519.519,0,0,1,.141-.426l.005,0a1.238,1.238,0,0,1,.286-.212,3.8,3.8,0,0,1,3.031.021,1.267,1.267,0,0,1,.25.191l0,0a.5.5,0,0,1,.141.425c0,.026,0,.049,0,.072a3.671,3.671,0,0,1-.016.524A5.521,5.521,0,0,1,17.531,3.6,4.659,4.659,0,0,1,17.1,4.628l-.043.073a1.722,1.722,0,0,1-.431.535,1.52,1.52,0,0,1-.148.1h0a1.347,1.347,0,0,1-.612.132m-1.634-3.75h0c-.06.053-.064.136-.063.254,0,.031,0,.059,0,.085a3.622,3.622,0,0,0,.016.491,5.408,5.408,0,0,0,.239.99,4.441,4.441,0,0,0,.407.97l.034.057a1.513,1.513,0,0,0,.387.492,1.256,1.256,0,0,0,.121.08,1.233,1.233,0,0,0,1,0c.045-.028.085-.054.124-.083a1.529,1.529,0,0,0,.373-.471l.044-.073a4.536,4.536,0,0,0,.411-.975,5.168,5.168,0,0,0,.237-.992,3.379,3.379,0,0,0,.016-.489c0-.028,0-.057,0-.088,0-.117,0-.2-.063-.25a.08.08,0,0,1-.018-.019,1.2,1.2,0,0,0-.2-.151,3.586,3.586,0,0,0-2.806-.02,1.076,1.076,0,0,0-.24.175l-.015.014m2.192,3.519h0Z" transform="translate(3.567 0.263)" fill="#fff"/>
    <path id="Path_1071" data-name="Path 1071" d="M12.9,5.468a1.278,1.278,0,0,1-.6-.131l-.011-.006a1.417,1.417,0,0,1-.143-.1,1.725,1.725,0,0,1-.45-.568l-.028-.046a4.738,4.738,0,0,1-.43-1.017A5.676,5.676,0,0,1,11,2.57a4.374,4.374,0,0,1-.016-.525.68.68,0,0,0,0-.072.513.513,0,0,1,.142-.427,1.252,1.252,0,0,1,.29-.215,3.8,3.8,0,0,1,3.021.016l.01.005a1.267,1.267,0,0,1,.25.191.508.508,0,0,1,.144.43c0,.025,0,.049,0,.07a3.671,3.671,0,0,1-.016.524A5.653,5.653,0,0,1,14.574,3.6a4.659,4.659,0,0,1-.433,1.024l-.048.08a1.7,1.7,0,0,1-.426.527,1.52,1.52,0,0,1-.148.1h0a1.347,1.347,0,0,1-.612.132m-.5-.337.01.006a1.261,1.261,0,0,0,.995,0c.045-.028.085-.054.124-.083a1.517,1.517,0,0,0,.368-.463l.049-.082a4.5,4.5,0,0,0,.411-.973,5.446,5.446,0,0,0,.237-.992,3.379,3.379,0,0,0,.016-.489c0-.028,0-.055,0-.087,0-.118,0-.2-.063-.252a1.176,1.176,0,0,0-.21-.163l-.01-.005a3.583,3.583,0,0,0-2.8-.02,1.076,1.076,0,0,0-.24.175c-.075.067-.079.149-.077.266,0,.031,0,.059,0,.087a3.622,3.622,0,0,0,.016.491,5.47,5.47,0,0,0,.237.99,4.562,4.562,0,0,0,.408.97l.029.049a1.535,1.535,0,0,0,.392.5,1.022,1.022,0,0,0,.112.075m1.06.105h0Z" transform="translate(2.81 0.263)" fill="#fff"/>
    <path id="Path_1072" data-name="Path 1072" d="M10.007,5.467A1.247,1.247,0,0,1,9.4,5.331a1.091,1.091,0,0,1-.143-.1,1.709,1.709,0,0,1-.446-.56l-.033-.054A4.759,4.759,0,0,1,8.349,3.6,5.69,5.69,0,0,1,8.1,2.57a4.232,4.232,0,0,1-.015-.525V1.974a.521.521,0,0,1,.139-.426l.005-.005a1.342,1.342,0,0,1,.286-.211l.01-.006a3.809,3.809,0,0,1,3.021.028,1.294,1.294,0,0,1,.251.19l.008.009a.51.51,0,0,1,.136.425c0,.025,0,.048,0,.069a3.661,3.661,0,0,1-.015.522A5.666,5.666,0,0,1,11.678,3.6a4.621,4.621,0,0,1-.433,1.022L11.2,4.7a1.735,1.735,0,0,1-.43.535,1.683,1.683,0,0,1-.148.1l-.015.008a1.344,1.344,0,0,1-.6.126M8.373,1.718h0c-.06.053-.064.134-.063.254,0,.031,0,.059,0,.085a3.964,3.964,0,0,0,.016.492,5.419,5.419,0,0,0,.239.988,4.45,4.45,0,0,0,.408.97l.033.057a1.526,1.526,0,0,0,.387.492c.038.028.077.054.121.08a1.226,1.226,0,0,0,1,0l.006,0a1.348,1.348,0,0,0,.117-.078,1.51,1.51,0,0,0,.373-.471l.044-.073a4.5,4.5,0,0,0,.411-.975,5.371,5.371,0,0,0,.239-.992,3.373,3.373,0,0,0,.015-.489c0-.028,0-.055,0-.084,0-.121,0-.2-.063-.254a.1.1,0,0,1-.015-.018,1.092,1.092,0,0,0-.2-.152,3.569,3.569,0,0,0-2.806-.02l-.011.005a1.136,1.136,0,0,0-.23.17l-.015.014" transform="translate(2.069 0.263)" fill="#fff"/>
    <path id="Path_1073" data-name="Path 1073" d="M7.113,5.468A1.252,1.252,0,0,1,6.5,5.331a1.35,1.35,0,0,1-.143-.1,1.734,1.734,0,0,1-.447-.563l-.031-.051-.006-.013a4.71,4.71,0,0,1-.422-1A5.691,5.691,0,0,1,5.206,2.57a4.26,4.26,0,0,1-.015-.526c0-.02,0-.041,0-.067a.516.516,0,0,1,.139-.43l.005,0a1.262,1.262,0,0,1,.286-.211l.01-.006a3.809,3.809,0,0,1,3.021.026,1.211,1.211,0,0,1,.25.191.505.505,0,0,1,.146.43c0,.025,0,.049,0,.07a4.089,4.089,0,0,1-.016.524A5.666,5.666,0,0,1,8.783,3.6a4.689,4.689,0,0,1-.433,1.024L8.307,4.7a1.722,1.722,0,0,1-.431.535,1.758,1.758,0,0,1-.147.1h0a1.347,1.347,0,0,1-.612.132M6.086,4.522l.023.039a1.561,1.561,0,0,0,.389.495c.038.028.078.055.122.082a1.243,1.243,0,0,0,1,0c.045-.028.084-.054.123-.083a1.529,1.529,0,0,0,.373-.471l.044-.073a4.566,4.566,0,0,0,.411-.975,5.37,5.37,0,0,0,.239-.992,3.587,3.587,0,0,0,.016-.49c0-.026,0-.054,0-.085,0-.118,0-.2-.063-.252a1.237,1.237,0,0,0-.22-.168,3.582,3.582,0,0,0-2.8-.02l-.011.006a1.1,1.1,0,0,0-.23.168l-.015.014h0c-.062.054-.064.137-.063.256,0,.029,0,.055,0,.082a3.758,3.758,0,0,0,.015.494,5.419,5.419,0,0,0,.239.988,4.513,4.513,0,0,0,.408.97l.008.015m1.585.715h0Z" transform="translate(1.328 0.263)" fill="#fff"/>
    <path id="Path_1074" data-name="Path 1074" d="M4.179,5.467a1.247,1.247,0,0,1-.608-.136,1.35,1.35,0,0,1-.143-.1,1.734,1.734,0,0,1-.447-.563L2.95,4.621A4.759,4.759,0,0,1,2.521,3.6,5.691,5.691,0,0,1,2.273,2.57a4.232,4.232,0,0,1-.015-.525V1.974A.521.521,0,0,1,2.4,1.548L2.4,1.543a1.342,1.342,0,0,1,.286-.211l.01-.006a3.809,3.809,0,0,1,3.021.028,1.294,1.294,0,0,1,.251.19.511.511,0,0,1,.143.433c0,.025,0,.048,0,.069a3.662,3.662,0,0,1-.015.522A5.666,5.666,0,0,1,5.85,3.6a4.621,4.621,0,0,1-.433,1.022L5.374,4.7a1.735,1.735,0,0,1-.43.535c-.046.034-.094.067-.148.1l-.015.006a1.344,1.344,0,0,1-.6.126M2.545,1.718h0c-.06.053-.064.134-.063.254,0,.031,0,.059,0,.085a3.965,3.965,0,0,0,.016.492,5.419,5.419,0,0,0,.239.988,4.45,4.45,0,0,0,.408.97l.03.054a1.575,1.575,0,0,0,.389.495c.038.028.078.055.122.082a1.238,1.238,0,0,0,1,0l.008,0a1.324,1.324,0,0,0,.116-.078,1.51,1.51,0,0,0,.373-.471l.044-.073a4.5,4.5,0,0,0,.411-.975,5.37,5.37,0,0,0,.239-.992,3.373,3.373,0,0,0,.015-.489c0-.028,0-.055,0-.085,0-.119,0-.2-.062-.254a1.162,1.162,0,0,0-.219-.168A3.57,3.57,0,0,0,2.8,1.529l-.011.005a1.136,1.136,0,0,0-.23.17l-.015.014" transform="translate(0.577 0.263)" fill="#fff"/>
    <path id="Path_1075" data-name="Path 1075" d="M18.755,5.468a1.278,1.278,0,0,1-.6-.131l-.011-.006a1.351,1.351,0,0,1-.143-.1,1.742,1.742,0,0,1-.45-.568l-.028-.046A4.738,4.738,0,0,1,17.1,3.6a5.676,5.676,0,0,1-.247-1.034,4.373,4.373,0,0,1-.016-.525.68.68,0,0,0,0-.072.513.513,0,0,1,.142-.427,1.253,1.253,0,0,1,.29-.215,3.8,3.8,0,0,1,3.019.016l.011.005a1.267,1.267,0,0,1,.25.191.508.508,0,0,1,.144.43c0,.025,0,.049,0,.07a3.671,3.671,0,0,1-.016.524A5.653,5.653,0,0,1,20.426,3.6a4.659,4.659,0,0,1-.433,1.024l-.048.08a1.71,1.71,0,0,1-.425.527,1.714,1.714,0,0,1-.149.1h0a1.347,1.347,0,0,1-.612.132m-.5-.337.01.006a1.261,1.261,0,0,0,.995,0c.045-.028.085-.054.124-.083a1.517,1.517,0,0,0,.368-.463l.049-.082a4.5,4.5,0,0,0,.411-.973,5.446,5.446,0,0,0,.237-.992,3.38,3.38,0,0,0,.016-.489c0-.028,0-.055,0-.087,0-.118,0-.2-.063-.252a1.176,1.176,0,0,0-.21-.163l-.01-.005a3.582,3.582,0,0,0-2.8-.02,1.076,1.076,0,0,0-.24.175c-.075.067-.079.149-.077.266,0,.031,0,.059,0,.087a3.622,3.622,0,0,0,.016.491,5.469,5.469,0,0,0,.237.99,4.562,4.562,0,0,0,.408.97l.029.049a1.534,1.534,0,0,0,.391.5,1.262,1.262,0,0,0,.113.075m1.06.105h0Z" transform="translate(4.308 0.263)" fill="#fff"/>
    <path id="Path_1076" data-name="Path 1076" d="M21.651,5.468a1.252,1.252,0,0,1-.609-.137,1.35,1.35,0,0,1-.143-.1,1.742,1.742,0,0,1-.45-.568l-.028-.046a4.758,4.758,0,0,1-.43-1.017,5.645,5.645,0,0,1-.247-1.034,3.917,3.917,0,0,1-.016-.526c0-.02,0-.041,0-.067a.516.516,0,0,1,.139-.43l.006,0a1.256,1.256,0,0,1,.286-.212,3.794,3.794,0,0,1,3.029.021,1.262,1.262,0,0,1,.251.191.508.508,0,0,1,.144.43c0,.025,0,.049,0,.07a4.089,4.089,0,0,1-.016.524A5.653,5.653,0,0,1,23.322,3.6a4.825,4.825,0,0,1-.426,1.01l-.008.015-.046.075a1.736,1.736,0,0,1-.427.531,1.6,1.6,0,0,1-.148.1h0a1.347,1.347,0,0,1-.612.132m-1.635-3.75h0c-.062.054-.064.137-.063.256,0,.029,0,.055,0,.082a3.439,3.439,0,0,0,.016.492,5.19,5.19,0,0,0,.237.99,4.528,4.528,0,0,0,.408.97l.029.049a1.534,1.534,0,0,0,.391.5c.038.028.078.055.122.082a1.243,1.243,0,0,0,1,0c.044-.028.084-.053.122-.082a1.545,1.545,0,0,0,.373-.467l.038-.064.008-.014a4.628,4.628,0,0,0,.412-.975,5.446,5.446,0,0,0,.237-.992,3.586,3.586,0,0,0,.016-.49c0-.026,0-.054,0-.085,0-.118,0-.2-.063-.252a1.192,1.192,0,0,0-.22-.168,3.572,3.572,0,0,0-2.8-.02,1.077,1.077,0,0,0-.241.176l-.015.013m2.193,3.519h0Z" transform="translate(5.048 0.263)" fill="#fff"/>
    <path id="Path_1077" data-name="Path 1077" d="M24.546,5.468a1.252,1.252,0,0,1-.609-.137,1.351,1.351,0,0,1-.143-.1,1.734,1.734,0,0,1-.447-.563l-.031-.051-.006-.013a4.71,4.71,0,0,1-.422-1,5.691,5.691,0,0,1-.249-1.034,4.261,4.261,0,0,1-.015-.526c0-.02,0-.041,0-.067a.516.516,0,0,1,.139-.43l.005,0a1.262,1.262,0,0,1,.286-.211l.01-.006a3.809,3.809,0,0,1,3.021.026,1.21,1.21,0,0,1,.25.191.506.506,0,0,1,.144.432c0,.025,0,.048,0,.069a3.662,3.662,0,0,1-.015.522A5.667,5.667,0,0,1,26.216,3.6a4.689,4.689,0,0,1-.433,1.024L25.74,4.7a1.722,1.722,0,0,1-.431.535,1.757,1.757,0,0,1-.147.1h0a1.347,1.347,0,0,1-.612.132m-1.027-.946.023.039a1.561,1.561,0,0,0,.389.495c.038.028.078.055.122.082a1.243,1.243,0,0,0,1,0c.045-.028.084-.054.123-.083a1.529,1.529,0,0,0,.373-.471l.044-.073A4.566,4.566,0,0,0,26,3.537a5.37,5.37,0,0,0,.239-.992,3.373,3.373,0,0,0,.015-.489c0-.028,0-.055,0-.085,0-.118,0-.2-.062-.254a1.237,1.237,0,0,0-.22-.168,3.582,3.582,0,0,0-2.8-.02l-.011.006a1.1,1.1,0,0,0-.23.168l-.015.014h0c-.062.054-.064.137-.063.256,0,.029,0,.055,0,.082a3.758,3.758,0,0,0,.015.494,5.419,5.419,0,0,0,.239.988,4.513,4.513,0,0,0,.408.97l.008.015m1.585.715h0Z" transform="translate(5.789 0.263)" fill="#fff"/>
    <path id="Path_1078" data-name="Path 1078" d="M27.441,5.467a1.247,1.247,0,0,1-.608-.136,1.091,1.091,0,0,1-.143-.1,1.709,1.709,0,0,1-.446-.56l-.033-.054A4.759,4.759,0,0,1,25.783,3.6a5.69,5.69,0,0,1-.249-1.034,4.346,4.346,0,0,1-.015-.525V1.974a.521.521,0,0,1,.139-.426l.005-.005a1.342,1.342,0,0,1,.286-.211,3.786,3.786,0,0,1,3.031.021,1.319,1.319,0,0,1,.251.19l0,.005a.506.506,0,0,1,.141.428c0,.025,0,.048,0,.069a3.666,3.666,0,0,1-.016.524A5.533,5.533,0,0,1,29.112,3.6a4.651,4.651,0,0,1-.433,1.022l-.043.074a1.735,1.735,0,0,1-.43.535,1.683,1.683,0,0,1-.148.1l-.015.008a1.344,1.344,0,0,1-.6.126M25.807,1.718h0c-.06.053-.064.134-.063.254,0,.031,0,.059,0,.085a3.622,3.622,0,0,0,.016.491,5.408,5.408,0,0,0,.239.99,4.45,4.45,0,0,0,.408.97l.033.057a1.526,1.526,0,0,0,.387.492c.038.028.077.054.121.08a1.226,1.226,0,0,0,1,0l.006,0a1.348,1.348,0,0,0,.117-.078,1.51,1.51,0,0,0,.373-.471l.044-.073a4.536,4.536,0,0,0,.411-.975,5.169,5.169,0,0,0,.237-.992,3.19,3.19,0,0,0,.016-.489c0-.028,0-.055,0-.084,0-.121,0-.2-.063-.254a.088.088,0,0,1-.018-.02,1.231,1.231,0,0,0-.2-.149,3.589,3.589,0,0,0-2.807-.02,1.116,1.116,0,0,0-.24.175l-.015.014" transform="translate(6.531 0.262)" fill="#fff"/>
    <path id="Path_1079" data-name="Path 1079" d="M20.651,29.983H11.994a.112.112,0,0,1-.112-.112v-.652a.112.112,0,0,1,.112-.113h8.657a.113.113,0,0,1,.113.113v.652a.112.112,0,0,1-.113.112m-8.544-.225h8.431v-.426H12.107Z" transform="translate(3.041 7.449)" fill="#fff"/>
    <path id="Path_1080" data-name="Path 1080" d="M21.106,34.576H12.363a.112.112,0,0,1-.113-.1,3.843,3.843,0,0,0-1.915-2.8.114.114,0,0,1-.06-.127.113.113,0,0,1,.111-.088h12.7a.113.113,0,0,1,.111.088.114.114,0,0,1-.06.127,3.839,3.839,0,0,0-1.915,2.8.112.112,0,0,1-.113.1m-8.641-.226H21a4.207,4.207,0,0,1,1.669-2.661H10.8a4.212,4.212,0,0,1,1.669,2.661" transform="translate(2.629 8.052)" fill="#fff"/>
    <path id="Path_1081" data-name="Path 1081" d="M15.579,39.523h0a.718.718,0,0,1-.618-.4,1.286,1.286,0,0,1-.088-.21,1.23,1.23,0,0,1-.044-.412v-.087c0-.187,0-.376.005-.561.013-.372.048-.742.087-1.119.03-.308.073-.711.147-1.1l.015-.078a3.178,3.178,0,0,1,.146-.576,1.157,1.157,0,0,1,.055-.112h0a.342.342,0,0,1,.291-.186h.006a.334.334,0,0,1,.284.192c.018.033.036.069.053.108a3.334,3.334,0,0,1,.151.6l.01.057c.072.394.116.794.147,1.1.036.377.072.747.083,1.118.006.187.009.376.008.561V38.5a1.388,1.388,0,0,1-.035.386l-.008.026a1.335,1.335,0,0,1-.1.234.674.674,0,0,1-.589.376m-.1-4.545a.919.919,0,0,0-.041.087,3.039,3.039,0,0,0-.136.531l-.011.078c-.074.383-.116.781-.146,1.084-.038.374-.072.738-.085,1.1,0,.182-.009.368-.006.551v.09a1.1,1.1,0,0,0,.03.33,1.04,1.04,0,0,0,.075.182.5.5,0,0,0,.421.283h0a.462.462,0,0,0,.394-.26,1.274,1.274,0,0,0,.077-.176l.009-.031a1.137,1.137,0,0,0,.029-.328V38.41c0-.182,0-.368-.006-.551-.011-.363-.046-.727-.085-1.1-.029-.3-.07-.695-.142-1.079l-.011-.058a2.968,2.968,0,0,0-.137-.558.656.656,0,0,0-.041-.084c-.026-.046-.057-.074-.092-.074h0a.126.126,0,0,0-.1.073" transform="translate(3.794 8.875)" fill="#fff"/>
    <path id="Path_1082" data-name="Path 1082" d="M14.527,39.523h0a.721.721,0,0,1-.619-.4,1.379,1.379,0,0,1-.087-.208l-.006-.02a1.336,1.336,0,0,1-.038-.393v-.087c0-.187,0-.374.006-.561.013-.372.046-.742.084-1.118.031-.309.074-.712.147-1.1l.015-.078a3.182,3.182,0,0,1,.147-.576c.018-.039.035-.077.054-.112h0a.345.345,0,0,1,.293-.186h.006a.331.331,0,0,1,.283.192,1.031,1.031,0,0,1,.051.105,3.041,3.041,0,0,1,.152.6l.011.055c.073.394.117.794.146,1.1.039.376.073.746.085,1.117.005.188.009.376.006.561V38.5a1.3,1.3,0,0,1-.036.386l-.008.026a1.17,1.17,0,0,1-.1.234.671.671,0,0,1-.589.376m-.491-.668a1.018,1.018,0,0,0,.069.16.5.5,0,0,0,.421.284h0a.459.459,0,0,0,.393-.26A1.045,1.045,0,0,0,15,38.861l.009-.031a1.137,1.137,0,0,0,.029-.328V38.41c0-.182,0-.367-.006-.551-.013-.363-.046-.727-.084-1.1-.03-.3-.072-.695-.144-1.079l-.009-.058a3.069,3.069,0,0,0-.139-.558c-.013-.029-.025-.057-.04-.084-.026-.046-.058-.074-.09-.074h0a.124.124,0,0,0-.1.073c-.015.028-.03.058-.043.087a3.042,3.042,0,0,0-.133.531l-.014.078c-.072.383-.116.781-.144,1.084-.038.374-.073.738-.084,1.1-.005.183-.009.368-.006.551v.09a1.2,1.2,0,0,0,.028.33Z" transform="translate(3.525 8.875)" fill="#fff"/>
    <path id="Path_1083" data-name="Path 1083" d="M13.512,39.523h0a.721.721,0,0,1-.619-.4,1.379,1.379,0,0,1-.087-.208L12.8,38.9a1.336,1.336,0,0,1-.038-.393v-.087c0-.187,0-.376.006-.563.013-.384.05-.772.083-1.118s.078-.722.148-1.1l.016-.087a2.991,2.991,0,0,1,.146-.568c.018-.04.035-.078.055-.114a.343.343,0,0,1,.291-.185h.005a.332.332,0,0,1,.284.192.917.917,0,0,1,.051.105,3.041,3.041,0,0,1,.152.6l.011.055c.073.394.117.794.146,1.1.039.377.073.747.085,1.118.005.188.009.376.005.563v.074a1.35,1.35,0,0,1-.035.4l-.013.034a.989.989,0,0,1-.1.226.671.671,0,0,1-.589.376m-.491-.669a.983.983,0,0,0,.069.161.5.5,0,0,0,.421.284h0a.458.458,0,0,0,.393-.261,1.015,1.015,0,0,0,.082-.191,1.157,1.157,0,0,0,.033-.354v-.08c0-.183,0-.369-.005-.553-.013-.363-.046-.727-.084-1.1-.03-.3-.072-.695-.144-1.079l-.009-.058a3.07,3.07,0,0,0-.139-.558c-.013-.029-.025-.057-.04-.084-.026-.048-.059-.074-.09-.074h0a.121.121,0,0,0-.1.073h0a.763.763,0,0,0-.041.085,2.764,2.764,0,0,0-.131.522l-.016.087c-.07.373-.114.756-.146,1.084s-.072.726-.083,1.1c-.006.183-.009.368-.006.551v.09a1.2,1.2,0,0,0,.028.33Z" transform="translate(3.265 8.875)" fill="#fff"/>
    <path id="Path_1084" data-name="Path 1084" d="M12.442,39.523h0a.718.718,0,0,1-.619-.4,1.21,1.21,0,0,1-.088-.208,1.234,1.234,0,0,1-.044-.413v-.085c0-.188,0-.377.006-.563.013-.384.05-.774.083-1.118s.078-.722.149-1.1l.015-.085a2.983,2.983,0,0,1,.147-.569.808.808,0,0,1,.051-.111l.041-.058a.324.324,0,0,1,.252-.131h.005a.331.331,0,0,1,.284.193.826.826,0,0,1,.051.105,3.029,3.029,0,0,1,.152.6l.036.19h0c.06.348.1.695.123.966.038.384.073.754.085,1.118.005.187.009.374.005.563v.073a1.362,1.362,0,0,1-.035.4v.094h-.033a.934.934,0,0,1-.077.166L13,39.206a.659.659,0,0,1-.554.318M12.325,35a.421.421,0,0,0-.026.059,2.72,2.72,0,0,0-.132.525l-.016.085c-.07.373-.113.757-.146,1.084-.033.342-.072.727-.083,1.1-.006.185-.009.368-.006.553V38.5a1.215,1.215,0,0,0,.028.332,1.119,1.119,0,0,0,.077.181.5.5,0,0,0,.421.284h0a.451.451,0,0,0,.391-.26l.026-.044a1.062,1.062,0,0,0,.057-.143v-.117l.024.005a2.019,2.019,0,0,0,.009-.247v-.079c0-.185,0-.369-.005-.554-.013-.355-.048-.721-.082-1.073-.033-.33-.075-.726-.147-1.108l-.025-.133h0a2.519,2.519,0,0,0-.124-.481.664.664,0,0,0-.04-.085c-.025-.048-.059-.073-.09-.073h0a.121.121,0,0,0-.1.072Z" transform="translate(2.991 8.875)" fill="#fff"/>
    <path id="Path_1085" data-name="Path 1085" d="M16.629,39.523h0a.718.718,0,0,1-.618-.4,1.185,1.185,0,0,1-.088-.21v0a1.219,1.219,0,0,1-.044-.411v-.085c0-.187,0-.374.006-.561.013-.372.046-.742.084-1.118.031-.309.074-.712.147-1.1l.015-.078a3.289,3.289,0,0,1,.147-.576c.018-.039.035-.077.054-.112h0a.348.348,0,0,1,.294-.186h.006a.313.313,0,0,1,.244.132h.008l.033.06a1.058,1.058,0,0,1,.05.108,3.058,3.058,0,0,1,.151.6l.011.057c.073.393.117.792.146,1.1.039.376.073.746.085,1.117.005.188.009.376.006.561V38.5a1.3,1.3,0,0,1-.036.386l-.008.026a1.17,1.17,0,0,1-.1.234.671.671,0,0,1-.589.376m-.49-.666a1,1,0,0,0,.068.157.5.5,0,0,0,.421.284h0a.459.459,0,0,0,.393-.26,1.045,1.045,0,0,0,.078-.177l.009-.03a1.15,1.15,0,0,0,.029-.329v-.09c0-.183,0-.368-.006-.553-.013-.363-.046-.727-.084-1.1-.03-.3-.072-.695-.144-1.079l-.009-.058a3.069,3.069,0,0,0-.139-.558c-.009-.019-.016-.038-.025-.055l-.018-.031c-.024-.045-.055-.07-.087-.07h0a.122.122,0,0,0-.1.072c-.015.028-.03.058-.043.087a3.071,3.071,0,0,0-.133.531l-.014.078c-.072.384-.116.781-.144,1.084-.038.374-.073.738-.084,1.1-.005.183-.009.368-.006.553V38.5a1.151,1.151,0,0,0,.029.33Z" transform="translate(4.063 8.875)" fill="#fff"/>
    <path id="Path_1086" data-name="Path 1086" d="M17.634,39.523h0a.718.718,0,0,1-.618-.4,1.185,1.185,0,0,1-.088-.21v0a1.219,1.219,0,0,1-.044-.411v-.085c0-.187,0-.374.006-.561.013-.372.046-.742.084-1.118.031-.309.074-.712.147-1.1l.015-.078a3.289,3.289,0,0,1,.147-.576c.018-.039.035-.077.054-.112h0a.348.348,0,0,1,.293-.186h.006a.317.317,0,0,1,.245.132h.008l.033.06a1.058,1.058,0,0,1,.05.108,3.058,3.058,0,0,1,.151.6l.011.057c.073.393.117.792.146,1.1.039.376.073.746.085,1.117.005.188.009.376.006.561V38.5a1.3,1.3,0,0,1-.036.386l-.008.026a1.17,1.17,0,0,1-.1.234.671.671,0,0,1-.589.376m-.49-.666a1,1,0,0,0,.068.157.5.5,0,0,0,.421.284h0a.459.459,0,0,0,.393-.26,1.045,1.045,0,0,0,.078-.177l.009-.03a1.151,1.151,0,0,0,.029-.329v-.09c0-.183,0-.368-.006-.553-.013-.363-.046-.727-.084-1.1-.03-.3-.072-.695-.144-1.079l-.009-.058a3.07,3.07,0,0,0-.139-.558.615.615,0,0,0-.026-.058l-.015-.029c-.025-.044-.057-.07-.089-.07h0a.122.122,0,0,0-.1.072c-.015.028-.03.058-.043.087a3.07,3.07,0,0,0-.133.531l-.014.078c-.072.384-.116.781-.144,1.084-.038.374-.073.738-.084,1.1-.005.183-.009.368-.006.553V38.5a1.151,1.151,0,0,0,.029.33Z" transform="translate(4.321 8.875)" fill="#fff"/>
    <path id="Path_1087" data-name="Path 1087" d="M18.652,39.523h0a.719.719,0,0,1-.62-.4,1.379,1.379,0,0,1-.087-.208l-.006-.02A1.336,1.336,0,0,1,17.9,38.5v-.087c0-.187,0-.376.006-.563.013-.384.05-.772.083-1.118s.078-.722.148-1.1l.016-.087a2.991,2.991,0,0,1,.146-.568c.018-.039.034-.077.053-.112l.041-.058a.326.326,0,0,1,.252-.129h.005a.332.332,0,0,1,.284.192.917.917,0,0,1,.051.105,3.041,3.041,0,0,1,.152.6l.036.19h0c.06.347.1.695.123.965.038.384.073.754.085,1.118.005.188.009.376.005.563v.074a1.35,1.35,0,0,1-.035.4l-.013.034a.989.989,0,0,1-.1.226l-.035.058a.661.661,0,0,1-.554.318m-.491-.669a.983.983,0,0,0,.069.161.5.5,0,0,0,.421.284h0a.453.453,0,0,0,.391-.261l.026-.044a1.192,1.192,0,0,0,.058-.147,1.157,1.157,0,0,0,.033-.354v-.08c0-.183,0-.369-.005-.553-.013-.355-.048-.721-.082-1.073-.033-.33-.075-.727-.148-1.108l-.024-.134h0a2.642,2.642,0,0,0-.124-.481c-.013-.029-.025-.057-.04-.084-.026-.048-.059-.074-.09-.074h0a.121.121,0,0,0-.1.073L18.536,35c-.01.02-.02.041-.029.063a2.764,2.764,0,0,0-.131.522l-.016.087c-.07.373-.114.756-.146,1.084s-.072.726-.083,1.1c-.006.183-.009.368-.006.551v.09a1.2,1.2,0,0,0,.028.33Z" transform="translate(4.581 8.875)" fill="#fff"/>
    <path id="Path_1088" data-name="Path 1088" d="M28.912,51.8H9.815V49.75c0-.408.314-1.2.89-1.2l.264-.041V48.05l.229-.065a5.2,5.2,0,0,0,3.468-4.076.878.878,0,0,1-.5-.8.89.89,0,0,1,.481-.825,3.739,3.739,0,0,0-1.766-2.377l-.173-.085,0-.192a2.726,2.726,0,0,1,2.021-2.648v-.357a10.138,10.138,0,0,1-4.927-2.1A10.688,10.688,0,0,1,7.953,32.69a11,11,0,0,1-.784-1.135l-.053-.088a5.593,5.593,0,0,1-.45-.85A4.252,4.252,0,0,1,6.414,28.3a2.093,2.093,0,0,1,1.428-1.477c.08-.026.161-.05.241-.069V26.7l.311-.005a.421.421,0,0,0,.293-.136.5.5,0,0,0,.144-.342A105.444,105.444,0,0,0,7.51,10.29a5.463,5.463,0,0,0-3.8-4.368L0,5.931V4.751A3.9,3.9,0,0,1,2.311,1.186V0h34.1V1.186a3.906,3.906,0,0,1,2.31,3.578V5.931H34.944a5.469,5.469,0,0,0-3.725,4.339A105.48,105.48,0,0,0,29.9,26.211a.507.507,0,0,0,.147.355.411.411,0,0,0,.289.132l.311,0v.051c.079.019.158.043.235.068a2.112,2.112,0,0,1,1.464,1.621,4.452,4.452,0,0,1-.276,2.159,6.751,6.751,0,0,1-.6,1.1,11.442,11.442,0,0,1-.9,1.252,10.715,10.715,0,0,1-1.873,1.762,10.116,10.116,0,0,1-4.686,1.915v.357a2.726,2.726,0,0,1,2.021,2.648l0,.192-.172.085a3.74,3.74,0,0,0-1.767,2.375.878.878,0,0,1,.482.8.894.894,0,0,1-.506.82,5.2,5.2,0,0,0,3.468,4.078l.229.065V48.5l.311.048h0c.526,0,.839.791.839,1.2Zm-18.469-.628H28.284V49.75a.814.814,0,0,0-.273-.575l-.882-.131v-.527a5.787,5.787,0,0,1-3.721-4.829l-.019-.316.316-.018a.249.249,0,0,0,.234-.269.235.235,0,0,0-.224-.256l-.322-.019.028-.323a4.3,4.3,0,0,1,1.971-3.043,2.091,2.091,0,0,0-1.737-1.885l-.278-.033V36.059l.285-.026a9.408,9.408,0,0,0,4.656-1.825,10.119,10.119,0,0,0,1.765-1.659,10.346,10.346,0,0,0,.816-1.127,6.283,6.283,0,0,0,.576-1.036,3.867,3.867,0,0,0,.247-1.834,1.474,1.474,0,0,0-1.045-1.137,1.96,1.96,0,0,0-.372-.089,1.08,1.08,0,0,1-.18-.023l-.112-.03a1.084,1.084,0,0,1-.419-.266,1.127,1.127,0,0,1-.328-.794A106.105,106.105,0,0,1,30.6,10.177a6.04,6.04,0,0,1,4.268-4.864L38.1,5.3V4.751A3.276,3.276,0,0,0,36,1.7l-.214-.072v-1H2.939v1L2.725,1.7A3.269,3.269,0,0,0,.63,4.739V5.3H3.783a6.043,6.043,0,0,1,4.348,4.9A106.182,106.182,0,0,1,9.46,26.221,1.119,1.119,0,0,1,9.136,27a1.086,1.086,0,0,1-.425.271v.009l-.064.01a.963.963,0,0,1-.225.034,2.193,2.193,0,0,0-.379.09,1.507,1.507,0,0,0-1.019,1.03A3.665,3.665,0,0,0,7.257,30.4a5.482,5.482,0,0,0,.4.74l.053.087a10.816,10.816,0,0,0,.74,1.074,10.156,10.156,0,0,0,1.736,1.732,9.418,9.418,0,0,0,4.883,2l.285.026v1.467l-.276.033a2.091,2.091,0,0,0-1.738,1.885A4.3,4.3,0,0,1,15.3,42.487l.029.318-.318.023a.25.25,0,0,0-.227.274.233.233,0,0,0,.229.252l.32.013-.019.322A5.785,5.785,0,0,1,11.6,48.517v.527l-.844.128c-.131.033-.31.353-.31.578Z" transform="translate(0 0)" fill="#fff"/>
  </g>
</svg>
