<svg xmlns="http://www.w3.org/2000/svg" xmlns:xlink="http://www.w3.org/1999/xlink" width="181.043" height="22.01" viewBox="0 0 181.043 22.01">
  <defs>
    <clipPath id="clip-path">
      <rect id="Rectangle_4" data-name="Rectangle 4" width="181.043" height="22.01"/>
    </clipPath>
  </defs>
  <g id="Group_15" data-name="Group 15" transform="translate(0 0)">
    <path id="Path_1044" data-name="Path 1044" d="M0,.481V21.774H2.237V11.425H13V10.292H2.237V1.613H14.315V.481Z" transform="translate(0 -0.122)"/>
    <path id="Path_1045" data-name="Path 1045" d="M32.136.481V21.774H46.064V20.641H34.373V.481Z" transform="translate(-8.172 -0.122)"/>
    <g id="Group_5" data-name="Group 5" transform="translate(0 0)">
      <g id="Group_4" data-name="Group 4" clip-path="url(#clip-path)">
        <path id="Path_1046" data-name="Path 1046" d="M79.508,11.005c0,6.531-4.145,11.005-9.9,11.005-5.786,0-9.931-4.474-9.931-11.005S63.851,0,69.607,0c5.726,0,9.9,4.533,9.9,11.005m-2.535,0c0-5.816-2.893-10.171-7.366-10.171-4.534,0-7.4,4.355-7.4,10.171,0,5.845,2.863,10.17,7.4,10.17,4.473,0,7.366-4.354,7.366-10.17" transform="translate(-15.175 0)"/>
        <path id="Path_1047" data-name="Path 1047" d="M101.86,13.035v8.739H99.623V.48h7.963c4.742,0,7.426,2.207,7.426,6.2a6.141,6.141,0,0,1-5.129,6.083l6.143,9.007H113.61l-5.905-8.739Zm0-11.421V11.933h5.726A4.984,4.984,0,0,0,112.8,6.684a4.861,4.861,0,0,0-5.218-5.07Z" transform="translate(-25.333 -0.122)"/>
        <rect id="Rectangle_3" data-name="Rectangle 3" width="2.237" height="21.294" transform="translate(100.127 0.359)"/>
        <path id="Path_1048" data-name="Path 1048" d="M168.485,21.774h-2.476l-2.594-6.649h-10.17l-2.594,6.649h-1.342L157.42.481h2.625Zm-5.4-7.784L158.345,1.583,153.573,13.99Z" transform="translate(-37.968 -0.122)"/>
        <path id="Path_1049" data-name="Path 1049" d="M202.592.48V21.774h-1.551L188.4,2.985V21.774h-1.252V.48h2.445l11.75,17.863V.48Z" transform="translate(-47.589 -0.122)"/>
        <path id="Path_1050" data-name="Path 1050" d="M220.544,15.3h2.086c.329,3.52,2.268,5.875,6.592,5.875,3.907,0,5.517-2.774,5.517-5.189,0-1.849-1.313-3.251-3.937-3.758l-4.116-.835c-3.788-.746-5.726-2.476-5.726-5.368,0-3.459,3.28-6.025,7.575-6.025,4.652,0,7.515,2.058,7.843,5.726h-2.119A5.3,5.3,0,0,0,228.537.835a5.018,5.018,0,0,0-5.189,5.189c0,1.878,1.014,2.983,3.847,3.579l4.235.865c3.788.776,5.7,2.5,5.7,5.458,0,3.549-3.459,6.084-7.9,6.084-5.16,0-8.47-2.5-8.679-6.711" transform="translate(-56.083 0)"/>
      </g>
    </g>
  </g>
</svg>
